<?xml version="1.0" encoding="UTF-8" standalone="no"?>
<!DOCTYPE svg PUBLIC "-//W3C//DTD SVG 1.1//EN"
 "http://www.w3.org/Graphics/SVG/1.1/DTD/svg11.dtd">
<!-- Generated by graphviz version 2.38.0 (20140413.2041)
 -->
<!-- Title: G Pages: 1 -->
<svg width="727pt" height="1061pt"
 viewBox="0.00 0.00 727.00 1061.00" xmlns="http://www.w3.org/2000/svg" xmlns:xlink="http://www.w3.org/1999/xlink">
<g id="graph0" class="graph" transform="scale(1 1) rotate(0) translate(4 1057)">
<title>G</title>
<polygon fill="white" stroke="none" points="-4,4 -4,-1057 723,-1057 723,4 -4,4"/>
<g id="clust1" class="cluster"><title>cluster_r0</title>
<polygon fill="none" stroke="black" stroke-width="2" points="8,-8 8,-1045 711,-1045 711,-8 8,-8"/>
<text text-anchor="middle" x="359.5" y="-1029.8" font-family="FangSong" font-size="14.00">FSM Runtime Framework</text>
</g>
<g id="clust4" class="cluster"><title>cluster_r0_a1</title>
<polygon fill="none" stroke="black" stroke-width="2" points="307,-802 307,-950 481,-950 481,-802 307,-802"/>
<text text-anchor="middle" x="394" y="-934.8" font-family="FangSong" font-size="14.00">Delay Unregister Area</text>
</g>
<g id="clust2" class="cluster"><title>cluster_r0_a0</title>
<polygon fill="none" stroke="black" stroke-width="2" points="25,-802 25,-950 299,-950 299,-802 25,-802"/>
<text text-anchor="middle" x="162" y="-934.8" font-family="FangSong" font-size="14.00">FSM Instances Area</text>
</g>
<g id="clust7" class="cluster"><title>cluster_r0_a4</title>
<polygon fill="none" stroke="black" stroke-width="2" points="485,-380 485,-620 703,-620 703,-380 485,-380"/>
<text text-anchor="middle" x="594" y="-604.8" font-family="FangSong" font-size="14.00">exception event guardian</text>
</g>
<g id="clust6" class="cluster"><title>cluster_r0_a3</title>
<polygon fill="none" stroke="black" stroke-width="2" points="259,-380 259,-620 477,-620 477,-380 259,-380"/>
<text text-anchor="middle" x="368" y="-604.8" font-family="FangSong" font-size="14.00">output event guardian</text>
</g>
<g id="clust5" class="cluster"><title>cluster_r0_a2</title>
<polygon fill="none" stroke="black" stroke-width="2" points="16,-360 16,-769 234,-769 234,-360 16,-360"/>
<text text-anchor="middle" x="125" y="-753.8" font-family="FangSong" font-size="14.00">input event guardian</text>
</g>
<g id="clust9" class="cluster"><title>cluster_r0_a5</title>
<polygon fill="none" stroke="black" stroke-width="2" points="81,-96 81,-327 341,-327 341,-96 81,-96"/>
<text text-anchor="middle" x="211" y="-311.8" font-family="FangSong" font-size="14.00">队列池</text>
</g>
<!-- topa -->
<!-- inst1 -->
<g id="node2" class="node"><title>inst1</title>
<ellipse fill="none" stroke="black" cx="231" cy="-901" rx="59.5901" ry="18"/>
<text text-anchor="middle" x="231" y="-897.3" font-family="FangSong" font-size="14.00">Instance 1</text>
</g>
<!-- topa&#45;&gt;inst1 -->
<!-- inst4 -->
<g id="node5" class="node"><title>inst4</title>
<ellipse fill="none" stroke="black" cx="375" cy="-901" rx="59.5901" ry="18"/>
<text text-anchor="middle" x="375" y="-897.3" font-family="FangSong" font-size="14.00">Instance 3</text>
</g>
<!-- topa&#45;&gt;inst4 -->
<!-- inst2 -->
<g id="node3" class="node"><title>inst2</title>
<ellipse fill="none" stroke="black" cx="93" cy="-828" rx="59.5901" ry="18"/>
<text text-anchor="middle" x="93" y="-824.3" font-family="FangSong" font-size="14.00">Instance 2</text>
</g>
<!-- inst1&#45;&gt;inst2 -->
<!-- instn -->
<g id="node4" class="node"><title>instn</title>
<ellipse fill="none" stroke="black" cx="231" cy="-828" rx="59.5901" ry="18"/>
<text text-anchor="middle" x="231" y="-824.3" font-family="FangSong" font-size="14.00">Instance n</text>
</g>
<!-- inst1&#45;&gt;instn -->
<!-- ihandlen -->
<g id="node10" class="node"><title>ihandlen</title>
<polygon fill="none" stroke="black" points="79,-661.5 79,-737.5 163,-737.5 163,-661.5 79,-661.5"/>
<text text-anchor="middle" x="121" y="-722.3" font-family="FangSong" font-size="14.00">head_tail</text>
<polyline fill="none" stroke="black" points="79,-714.5 163,-714.5 "/>
<text text-anchor="middle" x="121" y="-699.3" font-family="FangSong" font-size="14.00">Default</text>
<text text-anchor="middle" x="121" y="-684.3" font-family="FangSong" font-size="14.00">Input</text>
<text text-anchor="middle" x="121" y="-669.3" font-family="FangSong" font-size="14.00">Handle</text>
</g>
<!-- inst2&#45;&gt;ihandlen -->
<g id="edge13" class="edge"><title>inst2&#45;&gt;ihandlen</title>
<path fill="none" stroke="black" d="M98.9701,-800.028C102.987,-781.882 108.335,-757.717 112.757,-737.742"/>
<polygon fill="black" stroke="black" points="99.9615,-791.633 97.7762,-802 105.95,-795.258 99.9615,-791.633"/>
<text text-anchor="middle" x="149" y="-780.8" font-family="FangSong" font-size="14.00">3.2 状态改变</text>
</g>
<!-- instn&#45;&gt;ihandlen -->
<!-- instm -->
<g id="node6" class="node"><title>instm</title>
<ellipse fill="none" stroke="black" cx="375" cy="-828" rx="59.5901" ry="18"/>
<text text-anchor="middle" x="375" y="-824.3" font-family="FangSong" font-size="14.00">Instance m</text>
</g>
<!-- inst4&#45;&gt;instm -->
<!-- unreg -->
<g id="node7" class="node"><title>unreg</title>
<polygon fill="none" stroke="black" points="306.5,-681.5 306.5,-717.5 443.5,-717.5 443.5,-681.5 306.5,-681.5"/>
<text text-anchor="middle" x="375" y="-695.8" font-family="FangSong" font-size="14.00">Delay Unregister</text>
</g>
<!-- instm&#45;&gt;unreg -->
<g id="edge4" class="edge"><title>instm&#45;&gt;unreg</title>
<path fill="none" stroke="black" d="M375,-799.703C375,-774.809 375,-738.788 375,-717.694"/>
<polygon fill="black" stroke="black" points="371.5,-792 375,-802 378.5,-792 371.5,-792"/>
<text text-anchor="middle" x="442.5" y="-780.8" font-family="FangSong" font-size="14.00">延迟移除状态机实例</text>
</g>
<!-- ig -->
<g id="node8" class="node"><title>ig</title>
<polygon fill="none" stroke="black" points="24.5,-524.5 24.5,-560.5 225.5,-560.5 225.5,-524.5 24.5,-524.5"/>
<text text-anchor="middle" x="51.5" y="-538.8" font-family="FangSong" font-size="14.00">fsmid</text>
<polyline fill="none" stroke="black" points="78.5,-524.5 78.5,-560.5 "/>
<text text-anchor="middle" x="105.5" y="-538.8" font-family="FangSong" font-size="14.00">task1</text>
<polyline fill="none" stroke="black" points="132.5,-524.5 132.5,-560.5 "/>
<text text-anchor="middle" x="152" y="-538.8" font-family="FangSong" font-size="14.00">...</text>
<polyline fill="none" stroke="black" points="171.5,-524.5 171.5,-560.5 "/>
<text text-anchor="middle" x="198.5" y="-538.8" font-family="FangSong" font-size="14.00">taskn</text>
</g>
<!-- ihandle1 -->
<g id="node9" class="node"><title>ihandle1</title>
<polygon fill="none" stroke="black" points="24,-368.5 24,-444.5 108,-444.5 108,-368.5 24,-368.5"/>
<text text-anchor="middle" x="66" y="-429.3" font-family="FangSong" font-size="14.00">head_tail</text>
<polyline fill="none" stroke="black" points="24,-421.5 108,-421.5 "/>
<text text-anchor="middle" x="66" y="-406.3" font-family="FangSong" font-size="14.00">Default</text>
<text text-anchor="middle" x="66" y="-391.3" font-family="FangSong" font-size="14.00">Input</text>
<text text-anchor="middle" x="66" y="-376.3" font-family="FangSong" font-size="14.00">Handle</text>
</g>
<!-- ig&#45;&gt;ihandle1 -->
<g id="edge5" class="edge"><title>ig:f1&#45;&gt;ihandle1</title>
<path fill="none" stroke="black" stroke-dasharray="5,2" d="M105,-523.5C105,-489.32 58.4444,-508.491 43,-478 39.2364,-470.57 38.8439,-462.392 40.3591,-454.32"/>
<polygon fill="black" stroke="black" points="43.7597,-455.155 43.055,-444.583 37.0135,-453.287 43.7597,-455.155"/>
<text text-anchor="middle" x="95.5" y="-466.8" font-family="FangSong" font-size="14.00">3 状态迁移响应</text>
</g>
<!-- in_q -->
<g id="node17" class="node"><title>in_q</title>
<polygon fill="none" stroke="black" points="169,-104.5 169,-295.5 231,-295.5 231,-104.5 169,-104.5"/>
<text text-anchor="middle" x="200" y="-280.3" font-family="FangSong" font-size="14.00">input</text>
<text text-anchor="middle" x="200" y="-265.3" font-family="FangSong" font-size="14.00"> event</text>
<text text-anchor="middle" x="200" y="-250.3" font-family="FangSong" font-size="14.00"> queue</text>
<polyline fill="none" stroke="black" points="169,-242.5 231,-242.5 "/>
<text text-anchor="middle" x="200" y="-227.3" font-family="FangSong" font-size="14.00"> </text>
<polyline fill="none" stroke="black" points="169,-219.5 231,-219.5 "/>
<text text-anchor="middle" x="200" y="-204.3" font-family="FangSong" font-size="14.00"> </text>
<polyline fill="none" stroke="black" points="169,-196.5 231,-196.5 "/>
<text text-anchor="middle" x="200" y="-181.3" font-family="FangSong" font-size="14.00"> </text>
<polyline fill="none" stroke="black" points="169,-173.5 231,-173.5 "/>
<text text-anchor="middle" x="200" y="-158.3" font-family="FangSong" font-size="14.00"> </text>
<polyline fill="none" stroke="black" points="169,-150.5 231,-150.5 "/>
<text text-anchor="middle" x="200" y="-135.3" font-family="FangSong" font-size="14.00"> </text>
<polyline fill="none" stroke="black" points="169,-127.5 231,-127.5 "/>
<text text-anchor="middle" x="200" y="-112.3" font-family="FangSong" font-size="14.00"> </text>
</g>
<!-- ig&#45;&gt;in_q -->
<g id="edge15" class="edge"><title>ig:fn&#45;&gt;in_q</title>
<path fill="none" stroke="black" d="M198.134,-513.401C192.443,-482.425 160.309,-480.985 150,-445 139.596,-408.683 141.32,-396.767 150,-360 151.142,-355.164 153.164,-354.617 155,-350 161.889,-332.674 168.334,-313.864 174.073,-295.628"/>
<polygon fill="black" stroke="black" points="194.658,-513.836 199,-523.5 201.633,-513.238 194.658,-513.836"/>
<text text-anchor="middle" x="202.5" y="-402.8" font-family="FangSong" font-size="14.00">2 增加到任务链</text>
</g>
<!-- out_q -->
<g id="node18" class="node"><title>out_q</title>
<polygon fill="none" stroke="black" points="89,-104.5 89,-295.5 151,-295.5 151,-104.5 89,-104.5"/>
<text text-anchor="middle" x="120" y="-280.3" font-family="FangSong" font-size="14.00">output</text>
<text text-anchor="middle" x="120" y="-265.3" font-family="FangSong" font-size="14.00"> event</text>
<text text-anchor="middle" x="120" y="-250.3" font-family="FangSong" font-size="14.00"> queue</text>
<polyline fill="none" stroke="black" points="89,-242.5 151,-242.5 "/>
<text text-anchor="middle" x="120" y="-227.3" font-family="FangSong" font-size="14.00"> </text>
<polyline fill="none" stroke="black" points="89,-219.5 151,-219.5 "/>
<text text-anchor="middle" x="120" y="-204.3" font-family="FangSong" font-size="14.00"> </text>
<polyline fill="none" stroke="black" points="89,-196.5 151,-196.5 "/>
<text text-anchor="middle" x="120" y="-181.3" font-family="FangSong" font-size="14.00"> </text>
<polyline fill="none" stroke="black" points="89,-173.5 151,-173.5 "/>
<text text-anchor="middle" x="120" y="-158.3" font-family="FangSong" font-size="14.00"> </text>
<polyline fill="none" stroke="black" points="89,-150.5 151,-150.5 "/>
<text text-anchor="middle" x="120" y="-135.3" font-family="FangSong" font-size="14.00"> </text>
<polyline fill="none" stroke="black" points="89,-127.5 151,-127.5 "/>
<text text-anchor="middle" x="120" y="-112.3" font-family="FangSong" font-size="14.00"> </text>
</g>
<!-- ihandle1&#45;&gt;out_q -->
<g id="edge18" class="edge"><title>ihandle1&#45;&gt;out_q</title>
<path fill="none" stroke="black" d="M39.0659,-368.498C34.297,-357.891 31.7558,-346.171 35,-335 44.4571,-302.436 64.4699,-270.209 82.7016,-245.522"/>
<polygon fill="black" stroke="black" points="85.5645,-247.539 88.7985,-237.45 79.9787,-243.32 85.5645,-247.539"/>
<text text-anchor="middle" x="95" y="-338.8" font-family="FangSong" font-size="14.00">3.1 如果产生输出</text>
</g>
<!-- ihandlen&#45;&gt;ig -->
<g id="edge6" class="edge"><title>ihandlen&#45;&gt;ig:fn</title>
<path fill="none" stroke="black" stroke-dasharray="5,2" d="M162.45,-653.025C181.1,-627.911 199,-595.065 199,-561.5"/>
<polygon fill="black" stroke="black" points="159.454,-651.178 156.121,-661.235 164.998,-655.452 159.454,-651.178"/>
<text text-anchor="middle" x="231.5" y="-631.8" font-family="FangSong" font-size="14.00">3 状态迁移响应</text>
</g>
<!-- og -->
<g id="node11" class="node"><title>og</title>
<polygon fill="none" stroke="black" points="267.5,-388.5 267.5,-424.5 468.5,-424.5 468.5,-388.5 267.5,-388.5"/>
<text text-anchor="middle" x="294.5" y="-402.8" font-family="FangSong" font-size="14.00">fsmid</text>
<polyline fill="none" stroke="black" points="321.5,-388.5 321.5,-424.5 "/>
<text text-anchor="middle" x="348.5" y="-402.8" font-family="FangSong" font-size="14.00">task1</text>
<polyline fill="none" stroke="black" points="375.5,-388.5 375.5,-424.5 "/>
<text text-anchor="middle" x="395" y="-402.8" font-family="FangSong" font-size="14.00">...</text>
<polyline fill="none" stroke="black" points="414.5,-388.5 414.5,-424.5 "/>
<text text-anchor="middle" x="441.5" y="-402.8" font-family="FangSong" font-size="14.00">taskn</text>
</g>
<!-- og&#45;&gt;out_q -->
<g id="edge16" class="edge"><title>og&#45;&gt;out_q</title>
<path fill="none" stroke="black" d="M309.98,-385.008C250.364,-363.741 165.479,-332.78 160,-327 151.474,-318.005 144.765,-307.199 139.486,-295.745"/>
<polygon fill="black" stroke="black" points="309.089,-388.406 319.683,-388.464 311.437,-381.812 309.089,-388.406"/>
</g>
<!-- ohandle1 -->
<g id="node12" class="node"><title>ohandle1</title>
<polygon fill="none" stroke="black" points="312.5,-496.5 312.5,-588.5 381.5,-588.5 381.5,-496.5 312.5,-496.5"/>
<text text-anchor="middle" x="347" y="-573.3" font-family="FangSong" font-size="14.00">head</text>
<polyline fill="none" stroke="black" points="312.5,-565.5 381.5,-565.5 "/>
<text text-anchor="middle" x="347" y="-550.3" font-family="FangSong" font-size="14.00">handle1</text>
<polyline fill="none" stroke="black" points="312.5,-542.5 381.5,-542.5 "/>
<text text-anchor="middle" x="347" y="-527.3" font-family="FangSong" font-size="14.00">...</text>
<polyline fill="none" stroke="black" points="312.5,-519.5 381.5,-519.5 "/>
<text text-anchor="middle" x="347" y="-504.3" font-family="FangSong" font-size="14.00">handlen</text>
</g>
<!-- ohandle1&#45;&gt;og -->
<g id="edge7" class="edge"><title>ohandle1&#45;&gt;og:f1</title>
<path fill="none" stroke="black" stroke-dasharray="5,2" d="M347.671,-486.23C347.852,-467.007 348,-445.303 348,-425.5"/>
<polygon fill="black" stroke="black" points="344.17,-486.294 347.57,-496.328 351.17,-486.364 344.17,-486.294"/>
</g>
<!-- ohandlen -->
<g id="node13" class="node"><title>ohandlen</title>
<polygon fill="none" stroke="black" points="399.5,-496.5 399.5,-588.5 468.5,-588.5 468.5,-496.5 399.5,-496.5"/>
<text text-anchor="middle" x="434" y="-573.3" font-family="FangSong" font-size="14.00">head</text>
<polyline fill="none" stroke="black" points="399.5,-565.5 468.5,-565.5 "/>
<text text-anchor="middle" x="434" y="-550.3" font-family="FangSong" font-size="14.00">handle1</text>
<polyline fill="none" stroke="black" points="399.5,-542.5 468.5,-542.5 "/>
<text text-anchor="middle" x="434" y="-527.3" font-family="FangSong" font-size="14.00">...</text>
<polyline fill="none" stroke="black" points="399.5,-519.5 468.5,-519.5 "/>
<text text-anchor="middle" x="434" y="-504.3" font-family="FangSong" font-size="14.00">handlen</text>
</g>
<!-- ohandlen&#45;&gt;og -->
<g id="edge8" class="edge"><title>ohandlen&#45;&gt;og:fn</title>
<path fill="none" stroke="black" stroke-dasharray="5,2" d="M439.366,-486.282C440.82,-467.064 442,-445.349 442,-425.5"/>
<polygon fill="black" stroke="black" points="435.867,-486.131 438.561,-496.377 442.845,-486.687 435.867,-486.131"/>
</g>
<!-- eg -->
<g id="node14" class="node"><title>eg</title>
<polygon fill="none" stroke="black" points="493.5,-388.5 493.5,-424.5 694.5,-424.5 694.5,-388.5 493.5,-388.5"/>
<text text-anchor="middle" x="520.5" y="-402.8" font-family="FangSong" font-size="14.00">fsmid</text>
<polyline fill="none" stroke="black" points="547.5,-388.5 547.5,-424.5 "/>
<text text-anchor="middle" x="574.5" y="-402.8" font-family="FangSong" font-size="14.00">task1</text>
<polyline fill="none" stroke="black" points="601.5,-388.5 601.5,-424.5 "/>
<text text-anchor="middle" x="621" y="-402.8" font-family="FangSong" font-size="14.00">...</text>
<polyline fill="none" stroke="black" points="640.5,-388.5 640.5,-424.5 "/>
<text text-anchor="middle" x="667.5" y="-402.8" font-family="FangSong" font-size="14.00">taskn</text>
</g>
<!-- exception_q -->
<g id="node19" class="node"><title>exception_q</title>
<polygon fill="none" stroke="black" points="249,-104.5 249,-295.5 333,-295.5 333,-104.5 249,-104.5"/>
<text text-anchor="middle" x="291" y="-280.3" font-family="FangSong" font-size="14.00">exception</text>
<text text-anchor="middle" x="291" y="-265.3" font-family="FangSong" font-size="14.00"> event</text>
<text text-anchor="middle" x="291" y="-250.3" font-family="FangSong" font-size="14.00"> queue</text>
<polyline fill="none" stroke="black" points="249,-242.5 333,-242.5 "/>
<text text-anchor="middle" x="291" y="-227.3" font-family="FangSong" font-size="14.00"> </text>
<polyline fill="none" stroke="black" points="249,-219.5 333,-219.5 "/>
<text text-anchor="middle" x="291" y="-204.3" font-family="FangSong" font-size="14.00"> </text>
<polyline fill="none" stroke="black" points="249,-196.5 333,-196.5 "/>
<text text-anchor="middle" x="291" y="-181.3" font-family="FangSong" font-size="14.00"> </text>
<polyline fill="none" stroke="black" points="249,-173.5 333,-173.5 "/>
<text text-anchor="middle" x="291" y="-158.3" font-family="FangSong" font-size="14.00"> </text>
<polyline fill="none" stroke="black" points="249,-150.5 333,-150.5 "/>
<text text-anchor="middle" x="291" y="-135.3" font-family="FangSong" font-size="14.00"> </text>
<polyline fill="none" stroke="black" points="249,-127.5 333,-127.5 "/>
<text text-anchor="middle" x="291" y="-112.3" font-family="FangSong" font-size="14.00"> </text>
</g>
<!-- eg&#45;&gt;exception_q -->
<g id="edge17" class="edge"><title>eg&#45;&gt;exception_q</title>
<path fill="none" stroke="black" d="M560.251,-382.722C504.634,-345.185 393.853,-270.417 333.163,-229.457"/>
<polygon fill="black" stroke="black" points="558.441,-385.723 568.688,-388.416 562.357,-379.921 558.441,-385.723"/>
</g>
<!-- ehandle1 -->
<g id="node15" class="node"><title>ehandle1</title>
<polygon fill="none" stroke="black" points="538.5,-496.5 538.5,-588.5 607.5,-588.5 607.5,-496.5 538.5,-496.5"/>
<text text-anchor="middle" x="573" y="-573.3" font-family="FangSong" font-size="14.00">head</text>
<polyline fill="none" stroke="black" points="538.5,-565.5 607.5,-565.5 "/>
<text text-anchor="middle" x="573" y="-550.3" font-family="FangSong" font-size="14.00">handle1</text>
<polyline fill="none" stroke="black" points="538.5,-542.5 607.5,-542.5 "/>
<text text-anchor="middle" x="573" y="-527.3" font-family="FangSong" font-size="14.00">...</text>
<polyline fill="none" stroke="black" points="538.5,-519.5 607.5,-519.5 "/>
<text text-anchor="middle" x="573" y="-504.3" font-family="FangSong" font-size="14.00">handlen</text>
</g>
<!-- ehandle1&#45;&gt;eg -->
<g id="edge9" class="edge"><title>ehandle1&#45;&gt;eg:f1</title>
<path fill="none" stroke="black" stroke-dasharray="5,2" d="M573.671,-486.23C573.852,-467.007 574,-445.303 574,-425.5"/>
<polygon fill="black" stroke="black" points="570.17,-486.294 573.57,-496.328 577.17,-486.364 570.17,-486.294"/>
</g>
<!-- ehandlen -->
<g id="node16" class="node"><title>ehandlen</title>
<polygon fill="none" stroke="black" points="625.5,-496.5 625.5,-588.5 694.5,-588.5 694.5,-496.5 625.5,-496.5"/>
<text text-anchor="middle" x="660" y="-573.3" font-family="FangSong" font-size="14.00">head</text>
<polyline fill="none" stroke="black" points="625.5,-565.5 694.5,-565.5 "/>
<text text-anchor="middle" x="660" y="-550.3" font-family="FangSong" font-size="14.00">handle1</text>
<polyline fill="none" stroke="black" points="625.5,-542.5 694.5,-542.5 "/>
<text text-anchor="middle" x="660" y="-527.3" font-family="FangSong" font-size="14.00">...</text>
<polyline fill="none" stroke="black" points="625.5,-519.5 694.5,-519.5 "/>
<text text-anchor="middle" x="660" y="-504.3" font-family="FangSong" font-size="14.00">handlen</text>
</g>
<!-- ehandlen&#45;&gt;eg -->
<g id="edge10" class="edge"><title>ehandlen&#45;&gt;eg:fn</title>
<path fill="none" stroke="black" stroke-dasharray="5,2" d="M665.366,-486.282C666.82,-467.064 668,-445.349 668,-425.5"/>
<polygon fill="black" stroke="black" points="661.867,-486.131 664.561,-496.377 668.845,-486.687 661.867,-486.131"/>
</g>
<!-- app -->
<g id="node20" class="node"><title>app</title>
<polygon fill="none" stroke="black" points="150.5,-16.5 150.5,-52.5 249.5,-52.5 249.5,-16.5 150.5,-16.5"/>
<text text-anchor="middle" x="200" y="-30.8" font-family="FangSong" font-size="14.00">Application</text>
</g>
<!-- in_q&#45;&gt;app -->
<g id="edge19" class="edge"><title>in_q&#45;&gt;app</title>
<path fill="none" stroke="black" d="M200,-94.2139C200,-78.1395 200,-63.359 200,-52.6487"/>
<polygon fill="black" stroke="black" points="196.5,-94.3648 200,-104.365 203.5,-94.3649 196.5,-94.3648"/>
<text text-anchor="middle" x="271.5" y="-74.8" font-family="FangSong" font-size="14.00">1. emit input event</text>
</g>
</g>
</svg>
