<?xml version="1.0" encoding="UTF-8" standalone="no"?>
<!DOCTYPE svg PUBLIC "-//W3C//DTD SVG 1.1//EN"
 "http://www.w3.org/Graphics/SVG/1.1/DTD/svg11.dtd">
<!-- Generated by graphviz version 2.38.0 (20140413.2041)
 -->
<!-- Title: G Pages: 1 -->
<svg width="638pt" height="814pt"
 viewBox="0.00 0.00 638.00 814.00" xmlns="http://www.w3.org/2000/svg" xmlns:xlink="http://www.w3.org/1999/xlink">
<g id="graph0" class="graph" transform="scale(1 1) rotate(0) translate(4 810)">
<title>G</title>
<polygon fill="white" stroke="none" points="-4,4 -4,-810 634,-810 634,4 -4,4"/>
<g id="clust2" class="cluster"><title>cluster_r1</title>
<polygon fill="none" stroke="black" stroke-width="2" points="356,-8 356,-797 622,-797 622,-8 356,-8"/>
<text text-anchor="middle" x="489" y="-781.8" font-family="FangSong" font-size="14.00">FSM Fire Event</text>
</g>
<g id="clust1" class="cluster"><title>cluster_r0</title>
<polygon fill="none" stroke="black" stroke-width="2" points="8,-248 8,-798 348,-798 348,-248 8,-248"/>
<text text-anchor="middle" x="178" y="-782.8" font-family="FangSong" font-size="14.00">runtime usage</text>
</g>
<!-- get_fw -->
<g id="node1" class="node"><title>get_fw</title>
<polygon fill="none" stroke="black" points="16,-728.5 16,-766.5 340,-766.5 340,-728.5 16,-728.5"/>
<text text-anchor="middle" x="178" y="-751.3" font-family="FangSong" font-size="14.00">获取框架实例</text>
<text text-anchor="middle" x="178" y="-736.3" font-family="FangSong" font-size="14.00"> fsmfw =DefaultFsmFramework.getInstance()</text>
</g>
<!-- create_fsm -->
<g id="node2" class="node"><title>create_fsm</title>
<polygon fill="none" stroke="black" points="83.5,-652.5 83.5,-690.5 272.5,-690.5 272.5,-652.5 83.5,-652.5"/>
<text text-anchor="middle" x="178" y="-675.3" font-family="FangSong" font-size="14.00">创建状态机实例</text>
<text text-anchor="middle" x="178" y="-660.3" font-family="FangSong" font-size="14.00">Fsm fsm = new XXXmpl();</text>
</g>
<!-- get_fw&#45;&gt;create_fsm -->
<g id="edge1" class="edge"><title>get_fw&#45;&gt;create_fsm</title>
<path fill="none" stroke="black" d="M178,-728.208C178,-719.964 178,-710.038 178,-700.862"/>
<polygon fill="black" stroke="black" points="181.5,-700.582 178,-690.582 174.5,-700.582 181.5,-700.582"/>
</g>
<!-- register_fsm -->
<g id="node3" class="node"><title>register_fsm</title>
<polygon fill="none" stroke="black" points="94.5,-576.5 94.5,-614.5 261.5,-614.5 261.5,-576.5 94.5,-576.5"/>
<text text-anchor="middle" x="178" y="-599.3" font-family="FangSong" font-size="14.00">注册状态机实例</text>
<text text-anchor="middle" x="178" y="-584.3" font-family="FangSong" font-size="14.00">fsmfw.register(fsm);</text>
</g>
<!-- create_fsm&#45;&gt;register_fsm -->
<g id="edge2" class="edge"><title>create_fsm&#45;&gt;register_fsm</title>
<path fill="none" stroke="black" d="M178,-652.208C178,-643.964 178,-634.038 178,-624.862"/>
<polygon fill="black" stroke="black" points="181.5,-624.582 178,-614.582 174.5,-624.582 181.5,-624.582"/>
</g>
<!-- register_output -->
<g id="node4" class="node"><title>register_output</title>
<polygon fill="none" stroke="black" points="68.5,-486.5 68.5,-524.5 287.5,-524.5 287.5,-486.5 68.5,-486.5"/>
<text text-anchor="middle" x="178" y="-509.3" font-family="FangSong" font-size="14.00">注册输出处理</text>
<text text-anchor="middle" x="178" y="-494.3" font-family="FangSong" font-size="14.00">fsmfw.setOutputHandle(xxx);</text>
</g>
<!-- register_fsm&#45;&gt;register_output -->
<g id="edge3" class="edge"><title>register_fsm&#45;&gt;register_output</title>
<path fill="none" stroke="black" d="M178,-576.266C178,-564.349 178,-548.538 178,-534.982"/>
<polygon fill="black" stroke="black" points="181.5,-534.71 178,-524.71 174.5,-534.71 181.5,-534.71"/>
</g>
<!-- register_exception -->
<g id="node5" class="node"><title>register_exception</title>
<polygon fill="none" stroke="black" points="53.5,-410.5 53.5,-448.5 302.5,-448.5 302.5,-410.5 53.5,-410.5"/>
<text text-anchor="middle" x="178" y="-433.3" font-family="FangSong" font-size="14.00">注册异常处理</text>
<text text-anchor="middle" x="178" y="-418.3" font-family="FangSong" font-size="14.00"> fsmfw.setExcepitonHandle(xxx);</text>
</g>
<!-- register_output&#45;&gt;register_exception -->
<g id="edge4" class="edge"><title>register_output&#45;&gt;register_exception</title>
<path fill="none" stroke="black" d="M178,-486.208C178,-477.964 178,-468.038 178,-458.862"/>
<polygon fill="black" stroke="black" points="181.5,-458.582 178,-448.582 174.5,-458.582 181.5,-458.582"/>
</g>
<!-- emit_event -->
<g id="node6" class="node"><title>emit_event</title>
<polygon fill="none" stroke="black" points="83.5,-333.5 83.5,-372.5 272.5,-372.5 272.5,-333.5 83.5,-333.5"/>
<text text-anchor="middle" x="178" y="-341.3" font-family="FangSong" font-size="14.00"> fsmfw.emit(fsm,eventX)</text>
</g>
<!-- register_exception&#45;&gt;emit_event -->
<g id="edge5" class="edge"><title>register_exception&#45;&gt;emit_event</title>
<path fill="none" stroke="black" d="M178,-410.466C178,-402.143 178,-392.058 178,-382.727"/>
<polygon fill="black" stroke="black" points="181.5,-382.646 178,-372.646 174.5,-382.646 181.5,-382.646"/>
</g>
<!-- emit_event&#45;&gt;emit_event -->
<g id="edge7" class="edge"><title>emit_event&#45;&gt;emit_event</title>
<path fill="none" stroke="black" d="M272.794,-359.038C283.537,-357.907 290.5,-355.895 290.5,-353 290.5,-351.146 287.643,-349.653 282.764,-348.523"/>
<polygon fill="black" stroke="black" points="283.215,-345.051 272.794,-346.962 282.133,-351.967 283.215,-345.051"/>
<text text-anchor="middle" x="305.5" y="-349.3" font-family="FangSong" font-size="14.00">重复</text>
</g>
<!-- unregister_fsm -->
<g id="node7" class="node"><title>unregister_fsm</title>
<polygon fill="none" stroke="black" points="87,-256.5 87,-295.5 269,-295.5 269,-256.5 87,-256.5"/>
<text text-anchor="middle" x="178" y="-264.3" font-family="FangSong" font-size="14.00"> fsmfw.unregister(fsm)</text>
</g>
<!-- emit_event&#45;&gt;unregister_fsm -->
<g id="edge6" class="edge"><title>emit_event&#45;&gt;unregister_fsm</title>
<path fill="none" stroke="black" d="M178,-333.461C178,-325.077 178,-314.978 178,-305.653"/>
<polygon fill="black" stroke="black" points="181.5,-305.586 178,-295.586 174.5,-305.586 181.5,-305.586"/>
</g>
<!-- start -->
<g id="node8" class="node"><title>start</title>
<polygon fill="none" stroke="black" points="462,-729.5 462,-765.5 516,-765.5 516,-729.5 462,-729.5"/>
<text text-anchor="middle" x="489" y="-743.8" font-family="FangSong" font-size="14.00">start</text>
</g>
<!-- emit_event&#45;&gt;start -->
<g id="edge19" class="edge"><title>emit_event&#45;&gt;start</title>
<path fill="none" stroke="black" stroke-dasharray="5,2" d="M272.759,-364.769C295.584,-367.524 320.757,-370.681 346.182,-374.088"/>
<polygon fill="black" stroke="black" points="345.937,-377.586 356.316,-375.458 346.875,-370.65 345.937,-377.586"/>
</g>
<!-- precheck -->
<g id="node9" class="node"><title>precheck</title>
<polygon fill="none" stroke="black" points="424.5,-652.5 424.5,-690.5 553.5,-690.5 553.5,-652.5 424.5,-652.5"/>
<text text-anchor="middle" x="489" y="-675.3" font-family="FangSong" font-size="14.00">迁移前检查</text>
<text text-anchor="middle" x="489" y="-660.3" font-family="FangSong" font-size="14.00"> prefixCheck( )</text>
</g>
<!-- start&#45;&gt;precheck -->
<g id="edge8" class="edge"><title>start&#45;&gt;precheck</title>
<path fill="none" stroke="black" d="M489,-729.337C489,-720.808 489,-710.283 489,-700.618"/>
<polygon fill="black" stroke="black" points="492.5,-700.602 489,-690.602 485.5,-700.602 492.5,-700.602"/>
</g>
<!-- dcs1 -->
<g id="node10" class="node"><title>dcs1</title>
<polygon fill="none" stroke="black" points="489,-613.5 363.989,-595.5 489,-577.5 614.011,-595.5 489,-613.5"/>
<text text-anchor="middle" x="489" y="-591.8" font-family="FangSong" font-size="14.00"> 是否mealy状态机</text>
</g>
<!-- precheck&#45;&gt;dcs1 -->
<g id="edge9" class="edge"><title>precheck&#45;&gt;dcs1</title>
<path fill="none" stroke="black" d="M489,-652.208C489,-643.625 489,-633.22 489,-623.736"/>
<polygon fill="black" stroke="black" points="492.5,-623.567 489,-613.567 485.5,-623.567 492.5,-623.567"/>
</g>
<!-- mealy_output -->
<g id="node11" class="node"><title>mealy_output</title>
<polygon fill="none" stroke="black" points="411,-486.5 411,-524.5 495,-524.5 495,-486.5 411,-486.5"/>
<text text-anchor="middle" x="453" y="-509.3" font-family="FangSong" font-size="14.00">mealy输出</text>
<text text-anchor="middle" x="453" y="-494.3" font-family="FangSong" font-size="14.00"> output</text>
</g>
<!-- dcs1&#45;&gt;mealy_output -->
<g id="edge10" class="edge"><title>dcs1&#45;&gt;mealy_output</title>
<path fill="none" stroke="black" d="M482.397,-578.359C477.35,-566.023 470.273,-548.723 464.327,-534.189"/>
<polygon fill="black" stroke="black" points="467.456,-532.594 460.431,-524.664 460.978,-535.244 467.456,-532.594"/>
<text text-anchor="middle" x="480.5" y="-546.8" font-family="FangSong" font-size="14.00">是</text>
</g>
<!-- transition -->
<g id="node12" class="node"><title>transition</title>
<polygon fill="none" stroke="black" points="445,-410.5 445,-448.5 521,-448.5 521,-410.5 445,-410.5"/>
<text text-anchor="middle" x="483" y="-433.3" font-family="FangSong" font-size="14.00">状态迁移</text>
<text text-anchor="middle" x="483" y="-418.3" font-family="FangSong" font-size="14.00"> output</text>
</g>
<!-- dcs1&#45;&gt;transition -->
<g id="edge11" class="edge"><title>dcs1&#45;&gt;transition</title>
<path fill="none" stroke="black" d="M494.463,-578.253C500.883,-556.975 509.952,-518.548 504,-486 502.277,-476.575 499.034,-466.674 495.603,-457.886"/>
<polygon fill="black" stroke="black" points="498.784,-456.418 491.721,-448.521 492.318,-459.099 498.784,-456.418"/>
<text text-anchor="middle" x="512.5" y="-501.8" font-family="FangSong" font-size="14.00">否</text>
</g>
<!-- mealy_output&#45;&gt;transition -->
<g id="edge12" class="edge"><title>mealy_output&#45;&gt;transition</title>
<path fill="none" stroke="black" d="M460.416,-486.208C463.867,-477.695 468.045,-467.388 471.865,-457.967"/>
<polygon fill="black" stroke="black" points="475.156,-459.164 475.67,-448.582 468.669,-456.534 475.156,-459.164"/>
</g>
<!-- ontransition -->
<g id="node13" class="node"><title>ontransition</title>
<polygon fill="none" stroke="black" points="400,-334 400,-372 566,-372 566,-334 400,-334"/>
<text text-anchor="middle" x="483" y="-356.8" font-family="FangSong" font-size="14.00">状态迁移响应处理函数</text>
<text text-anchor="middle" x="483" y="-341.8" font-family="FangSong" font-size="14.00"> onTransition()</text>
</g>
<!-- transition&#45;&gt;ontransition -->
<g id="edge13" class="edge"><title>transition&#45;&gt;ontransition</title>
<path fill="none" stroke="black" d="M483,-410.466C483,-402.018 483,-391.754 483,-382.306"/>
<polygon fill="black" stroke="black" points="486.5,-382.126 483,-372.127 479.5,-382.127 486.5,-382.126"/>
</g>
<!-- dcs2 -->
<g id="node14" class="node"><title>dcs2</title>
<polygon fill="none" stroke="black" points="483,-294 364.357,-276 483,-258 601.643,-276 483,-294"/>
<text text-anchor="middle" x="483" y="-272.3" font-family="FangSong" font-size="14.00">是否moore状态机</text>
</g>
<!-- ontransition&#45;&gt;dcs2 -->
<g id="edge14" class="edge"><title>ontransition&#45;&gt;dcs2</title>
<path fill="none" stroke="black" d="M483,-333.845C483,-324.994 483,-314.163 483,-304.339"/>
<polygon fill="black" stroke="black" points="486.5,-304.215 483,-294.215 479.5,-304.215 486.5,-304.215"/>
</g>
<!-- moore_output -->
<g id="node15" class="node"><title>moore_output</title>
<polygon fill="none" stroke="black" points="375,-166.5 375,-204.5 459,-204.5 459,-166.5 375,-166.5"/>
<text text-anchor="middle" x="417" y="-189.3" font-family="FangSong" font-size="14.00">moore输出</text>
<text text-anchor="middle" x="417" y="-174.3" font-family="FangSong" font-size="14.00"> output</text>
</g>
<!-- dcs2&#45;&gt;moore_output -->
<g id="edge15" class="edge"><title>dcs2&#45;&gt;moore_output</title>
<path fill="none" stroke="black" d="M471.504,-259.584C461.906,-246.715 448.01,-228.081 436.651,-212.85"/>
<polygon fill="black" stroke="black" points="439.429,-210.721 430.645,-204.797 433.818,-214.906 439.429,-210.721"/>
<text text-anchor="middle" x="460.5" y="-226.8" font-family="FangSong" font-size="14.00">是</text>
</g>
<!-- postcheck -->
<g id="node16" class="node"><title>postcheck</title>
<polygon fill="none" stroke="black" points="397.5,-90.5 397.5,-128.5 526.5,-128.5 526.5,-90.5 397.5,-90.5"/>
<text text-anchor="middle" x="462" y="-113.3" font-family="FangSong" font-size="14.00">迁移后检查</text>
<text text-anchor="middle" x="462" y="-98.3" font-family="FangSong" font-size="14.00"> postfixCheck()</text>
</g>
<!-- dcs2&#45;&gt;postcheck -->
<g id="edge16" class="edge"><title>dcs2&#45;&gt;postcheck</title>
<path fill="none" stroke="black" d="M480.871,-258.322C477.295,-230.314 470.045,-173.521 465.646,-139.06"/>
<polygon fill="black" stroke="black" points="469.064,-138.197 464.326,-128.721 462.121,-139.083 469.064,-138.197"/>
<text text-anchor="middle" x="480.5" y="-181.8" font-family="FangSong" font-size="14.00">否</text>
</g>
<!-- moore_output&#45;&gt;postcheck -->
<g id="edge17" class="edge"><title>moore_output&#45;&gt;postcheck</title>
<path fill="none" stroke="black" d="M428.124,-166.208C433.41,-157.515 439.832,-146.954 445.658,-137.373"/>
<polygon fill="black" stroke="black" points="448.799,-138.945 451.004,-128.582 442.818,-135.307 448.799,-138.945"/>
</g>
<!-- end -->
<g id="node17" class="node"><title>end</title>
<polygon fill="none" stroke="black" points="435,-16.5 435,-52.5 489,-52.5 489,-16.5 435,-16.5"/>
<text text-anchor="middle" x="462" y="-30.8" font-family="FangSong" font-size="14.00">end</text>
</g>
<!-- postcheck&#45;&gt;end -->
<g id="edge18" class="edge"><title>postcheck&#45;&gt;end</title>
<path fill="none" stroke="black" d="M462,-90.4551C462,-82.2008 462,-72.2377 462,-63.0742"/>
<polygon fill="black" stroke="black" points="465.5,-62.8347 462,-52.8347 458.5,-62.8347 465.5,-62.8347"/>
</g>
</g>
</svg>
